<?xml version="1.0" standalone="no"?>
<!DOCTYPE svg PUBLIC "-//W3C//DTD SVG 1.1//EN" "http://www.w3.org/Graphics/SVG/1.1/DTD/svg11.dtd" >
<!--
2013-9-30: Created.
-->
<svg>
<metadata>
Created by iconfont
</metadata>
<defs>

<font id="iconfont" horiz-adv-x="1024" >
  <font-face
    font-family="iconfont"
    font-weight="500"
    font-stretch="normal"
    units-per-em="1024"
    ascent="896"
    descent="-128"
  />
    <missing-glyph />
    
    <glyph glyph-name="x" unicode="x" horiz-adv-x="1001"
d="M281 543q-27 -1 -53 -1h-83q-18 0 -36.5 -6t-32.5 -18.5t-23 -32t-9 -45.5v-76h912v41q0 16 -0.5 30t-0.5 18q0 13 -5 29t-17 29.5t-31.5 22.5t-49.5 9h-133v-97h-438v97zM955 310v-52q0 -23 0.5 -52t0.5 -58t-10.5 -47.5t-26 -30t-33 -16t-31.5 -4.5q-14 -1 -29.5 -0.5
t-29.5 0.5h-32l-45 128h-439l-44 -128h-29h-34q-20 0 -45 1q-25 0 -41 9.5t-25.5 23t-13.5 29.5t-4 30v167h911zM163 247q-12 0 -21 -8.5t-9 -21.5t9 -21.5t21 -8.5q13 0 22 8.5t9 21.5t-9 21.5t-22 8.5zM316 123q-8 -26 -14 -48q-5 -19 -10.5 -37t-7.5 -25t-3 -15t1 -14.5
t9.5 -10.5t21.5 -4h37h67h81h80h64h36q23 0 34 12t2 38q-5 13 -9.5 30.5t-9.5 34.5q-5 19 -11 39h-368zM336 498v228q0 11 2.5 23t10 21.5t20.5 15.5t34 6h188q31 0 51.5 -14.5t20.5 -52.5v-227h-327z" />
    

    
    <glyph glyph-name="label_wo" unicode="&#58987;" d="M967.111111 120.035556c-27.306667 18.204444-59.164444 31.857778-88.746667 38.684444-13.653333 4.551111-27.306667 6.826667-40.96 9.102222-63.715556 13.653333-125.155556 27.306667-172.942222 88.746667 0 0-11.377778 29.582222 38.684445 93.297778 93.297778 116.053333 72.817778 295.822222 63.715555 348.16C748.657778 811.804444 643.982222 896 523.377778 896c-120.604444 0-225.28-84.195556-243.484445-195.697778-11.377778-68.266667-27.306667-236.657778 63.715556-348.16 54.613333-65.991111 38.684444-93.297778 38.684444-93.297778-45.511111-61.44-106.951111-72.817778-170.666666-88.746666-13.653333-2.275556-27.306667-6.826667-38.684445-9.102222-31.857778-6.826667-63.715556-20.48-93.297778-40.96-100.124444-70.542222-77.368889-223.004444-75.093333-227.555556v-20.48h1035.377778l2.275555 18.204444c2.275556 6.826667 25.031111 159.288889-75.093333 229.831112zM1001.244444-82.488889H45.511111c-2.275556 38.684444 0 122.88 59.164445 163.84 22.755556 15.928889 50.062222 27.306667 77.368888 34.133333 11.377778 2.275556 25.031111 6.826667 38.684445 9.102223 65.991111 15.928889 143.36 31.857778 197.973333 104.675555 4.551111 4.551111 40.96 52.337778-38.684444 152.462222C295.822222 479.573333 316.302222 643.413333 323.128889 691.2c15.928889 91.022222 100.124444 159.288889 200.248889 159.288889 97.848889 0 184.32-68.266667 197.973333-159.288889 9.102222-47.786667 27.306667-211.626667-54.613333-311.751111-79.644444-97.848889-43.235556-145.635556-38.684445-150.186667 54.613333-72.817778 129.706667-91.022222 197.973334-104.675555 13.653333-2.275556 27.306667-6.826667 40.96-9.102223 27.306667-6.826667 52.337778-15.928889 75.093333-31.857777 56.888889-43.235556 61.44-127.431111 59.164444-166.115556z"  horiz-adv-x="1046" />

    
    <glyph glyph-name="label_wodezuoye_xiangying" unicode="&#58988;" d="M907.207554-128H210.190005C131.598077-128 116.517363-115.432739 116.517363-34.909176V314.181416H93.244657a87.831193 87.831193 0 0 0-93.090824 92.858098 102.399907 102.399907 0 0 0 31.115608 74.007205L457.578871 858.995466A124.625341 124.625341 0 0 0 546.66679 895.999069a126.068249 126.068249 0 0 0 90.5541-38.399965l450.070864-377.71602a104.354814 104.354814 0 0 0 29.975245-72.84357 87.831193 87.831193 0 0 0-93.090824-92.858098h-23.272707v-349.090592c0-80.523563-15.080714-93.090824-93.672642-93.090824z"  horiz-adv-x="1117" />

    
    <glyph glyph-name="label_baojianzu" unicode="&#58989;" d="M1007.709091 62.836364c-41.890909 60.509091-181.527273 111.709091-223.418182 125.672727-83.781818 30.254545-123.345455 72.145455-123.345454 81.454545 2.327273 25.6 9.309091 51.2 20.945454 74.472728 6.981818 6.981818 11.636364 13.963636 18.618182 20.945454l-6.981818 4.654546-2.327273 4.654545 11.636364-6.981818c46.545455 67.490909 72.145455 148.945455 69.818181 232.727273C772.654545 784.290909 681.890909 891.345455 528.290909 893.672727H512c-158.254545-2.327273-249.018182-109.381818-249.018182-293.236363-2.327273-93.090909 27.927273-183.854545 88.436364-253.672728 13.963636-23.272727 20.945455-51.2 23.272727-76.8 0-11.636364-37.236364-53.527273-121.018182-83.781818-111.709091-39.563636-186.181818-79.127273-225.745454-121.018182C9.309091 44.218182 0 2.327273 0-58.181818c0-18.618182 4.654545-34.909091 18.618182-48.872727 11.636364-13.963636 27.927273-20.945455 46.545454-20.945455h905.309091c27.927273 0 53.527273 18.618182 60.509091 44.218182h4.654546l-2.327273 23.272727c0 58.181818-9.309091 100.072727-25.6 123.345455z m-18.618182-125.672728c0-9.309091-9.309091-18.618182-18.618182-18.618181H65.163636c-4.654545 0-9.309091 2.327273-13.963636 6.981818-2.327273 2.327273-4.654545 6.981818-4.654545 13.963636 0 65.163636 11.636364 88.436364 18.618181 97.745455 32.581818 34.909091 104.727273 74.472727 207.127273 109.381818 88.436364 30.254545 151.272727 83.781818 151.272727 128-2.327273 34.909091-11.636364 69.818182-30.254545 100.072727l-2.327273 4.654546c-53.527273 62.836364-81.454545 141.963636-79.127273 225.745454C311.854545 714.472727 346.763636 847.127273 512 849.454545h11.636364c165.236364-2.327273 200.145455-134.981818 200.145454-246.690909 2.327273-72.145455-20.945455-144.290909-60.509091-202.472727l-2.327272-2.327273c-4.654545-6.981818-11.636364-13.963636-16.29091-20.945454l-2.327272-4.654546c-16.290909-30.254545-25.6-62.836364-27.927273-97.745454 0-41.890909 65.163636-95.418182 153.6-128 100.072727-34.909091 179.2-76.8 202.472727-109.381818 11.636364-13.963636 18.618182-48.872727 20.945455-93.090909v-6.981819zM1186.909091 137.309091l-2.327273 2.327273c-34.909091 48.872727-144.290909 90.763636-188.509091 107.054545-67.490909 23.272727-97.745455 58.181818-100.072727 65.163636 2.327273 20.945455 6.981818 41.890909 16.290909 60.509091 51.2 60.509091 79.127273 137.309091 76.8 216.436364 0 158.254545-79.127273 251.345455-216.436364 251.345455h-16.290909l2.327273-46.545455h13.963636c139.636364 0 169.890909-111.709091 169.89091-204.8 2.327273-69.818182-20.945455-134.981818-67.49091-188.509091l-2.327272-4.654545c-13.963636-25.6-23.272727-53.527273-23.272728-83.781819 0-37.236364 55.854545-83.781818 130.327273-111.70909 79.127273-27.927273 146.618182-62.836364 165.236364-88.436364 11.636364-25.6 18.618182-53.527273 18.618182-83.781818 0-2.327273 0-4.654545-2.327273-6.981818-6.981818-6.981818-13.963636-11.636364-23.272727-13.963637H1093.818182v-11.636363l-25.6-6.981819 11.636363-23.272727h67.49091c16.290909 4.654545 32.581818 13.963636 46.545454 25.6 11.636364 11.636364 16.290909 25.6 16.290909 39.563636 0 39.563636-6.981818 74.472727-23.272727 107.054546z"  horiz-adv-x="1210" />

    
    <glyph glyph-name="label_zhishiku" unicode="&#58990;" d="M1016.754717 891.169811h-169.056604c-24.150943 0-48.301887-12.075472-60.377358-31.396226C775.245283 879.09434 751.09434 891.169811 726.943396 891.169811h-169.056604c-26.566038 0-50.716981-14.490566-62.792452-38.641509L342.943396 893.584906c-38.641509 9.660377-77.283019-12.075472-89.35849-50.716981L2.415094 4.830189c-9.660377-38.641509 12.075472-77.283019 50.716981-89.358491L217.358491-125.584906c7.245283-2.415094 12.075472-2.415094 19.320754-2.415094 31.396226 0 60.377358 21.735849 70.037736 53.132075l178.716981 598.943397v-574.792453c0-41.056604 31.396226-72.45283 72.45283-72.45283h169.056604c24.150943 0 48.301887 12.075472 60.377359 31.396226 12.075472-19.320755 36.226415-31.396226 60.377358-31.396226h169.056604c41.056604 0 72.45283 31.396226 72.45283 72.45283v869.433962c0 38.641509-33.811321 72.45283-72.45283 72.45283zM258.415094-62.792453c-2.415094-12.075472-16.90566-21.735849-28.981132-16.90566l-164.226415 43.471698c-12.075472 2.415094-19.320755 16.90566-16.90566 28.981132L299.471698 830.792453c2.415094 9.660377 12.075472 16.90566 24.150944 16.90566h7.245283l154.566037-41.056604v-113.509434l-227.018868-755.924528z m492.679246 12.075472c0-14.490566-9.660377-24.150943-24.150944-24.150944h-169.056604c-14.490566 0-24.150943 9.660377-24.150943 24.150944v869.433962c0 14.490566 9.660377 24.150943 24.150943 24.150944h169.056604c14.490566 0 24.150943-9.660377 24.150944-24.150944v-869.433962z m289.81132 0c0-14.490566-9.660377-24.150943-24.150943-24.150944h-169.056604c-14.490566 0-24.150943 9.660377-24.150943 24.150944v869.433962c0 14.490566 9.660377 24.150943 24.150943 24.150944h169.056604c14.490566 0 24.150943-9.660377 24.150943-24.150944v-869.433962zM968.45283 722.113208h-72.45283c-14.490566 0-24.150943-9.660377-24.150943-24.150944s9.660377-24.150943 24.150943-24.150943h72.45283c14.490566 0 24.150943 9.660377 24.150944 24.150943 0 12.075472-12.075472 24.150943-24.150944 24.150944zM968.45283 601.358491h-72.45283c-14.490566 0-24.150943-9.660377-24.150943-24.150944s9.660377-24.150943 24.150943-24.150943h72.45283c14.490566 0 24.150943 9.660377 24.150944 24.150943 0 12.075472-12.075472 24.150943-24.150944 24.150944zM968.45283 480.603774h-72.45283c-14.490566 0-24.150943-9.660377-24.150943-24.150944s9.660377-24.150943 24.150943-24.150943h72.45283c14.490566 0 24.150943 9.660377 24.150944 24.150943 0 12.075472-12.075472 24.150943-24.150944 24.150944zM678.641509 722.113208h-72.45283c-14.490566 0-24.150943-9.660377-24.150943-24.150944s9.660377-24.150943 24.150943-24.150943h72.45283c14.490566 0 24.150943 9.660377 24.150944 24.150943 0 12.075472-12.075472 24.150943-24.150944 24.150944zM678.641509 601.358491h-72.45283c-14.490566 0-24.150943-9.660377-24.150943-24.150944s9.660377-24.150943 24.150943-24.150943h72.45283c14.490566 0 24.150943 9.660377 24.150944 24.150943 0 12.075472-12.075472 24.150943-24.150944 24.150944zM678.641509 480.603774h-72.45283c-14.490566 0-24.150943-9.660377-24.150943-24.150944s9.660377-24.150943 24.150943-24.150943h72.45283c14.490566 0 24.150943 9.660377 24.150944 24.150943 0 12.075472-12.075472 24.150943-24.150944 24.150944zM415.396226 697.962264l-70.037735 19.320755h-2.415095c-12.075472 2.415094-26.566038-4.830189-28.981132-19.320755-2.415094-12.075472 4.830189-26.566038 19.320755-28.981132l70.037736-19.320755c12.075472-2.415094 26.566038 4.830189 28.981132 16.905661 2.415094 16.90566-4.830189 28.981132-16.905661 31.396226zM384 582.037736l-70.037736 19.320755h-2.415094c-12.075472 2.415094-26.566038-4.830189-28.981132-19.320755-2.415094-12.075472 4.830189-26.566038 19.320754-28.981132l70.037736-19.320755c12.075472-2.415094 26.566038 4.830189 28.981132 16.90566 2.415094 14.490566-4.830189 28.981132-16.90566 31.396227zM352.603774 466.113208l-70.037736 19.320754h-2.415095c-12.075472 2.415094-26.566038-4.830189-28.981132-19.320754-2.415094-12.075472 4.830189-26.566038 19.320755-28.981133l70.037736-19.320754c12.075472-2.415094 26.566038 4.830189 28.981132 16.90566 2.415094 14.490566-4.830189 26.566038-16.90566 31.396227z"  horiz-adv-x="1089" />

    
    <glyph glyph-name="shouye-meirizuoye" unicode="&#58991;" d="M86.646154 305.230769h850.707692v-315.076923c0-51.987692-42.535385-94.523077-94.523077-94.523077h-661.661538c-51.987692 0-94.523077 42.535385-94.523077 94.523077v315.076923zM858.584615 896h-693.16923C100.824615 896 47.261538 842.436923 47.261538 777.846154v-787.692308C47.261538-74.436923 100.824615-128 165.415385-128h693.16923c64.590769 0 118.153846 53.563077 118.153847 118.153846v787.692308C976.738462 842.436923 923.175385 896 858.584615 896zM929.476923-9.846154c0-39.384615-31.507692-70.892308-70.892308-70.892308h-693.16923C126.030769-80.738462 94.523077-49.230769 94.523077-9.846154v787.692308C94.523077 817.230769 126.030769 848.738462 165.415385 848.738462h693.16923C897.969231 848.738462 929.476923 817.230769 929.476923 777.846154v-787.692308zM724.676923 510.030769H299.323077c-12.603077 0-23.630769-11.027692-23.630769-23.630769s11.027692-23.630769 23.630769-23.630769h425.353846c12.603077 0 23.630769 11.027692 23.630769 23.630769s-11.027692 23.630769-23.630769 23.630769zM724.676923 305.230769H299.323077c-12.603077 0-23.630769-11.027692-23.630769-23.630769s11.027692-23.630769 23.630769-23.630769h425.353846c12.603077 0 23.630769 11.027692 23.630769 23.630769s-11.027692 23.630769-23.630769 23.630769z"  horiz-adv-x="1024" />

    
    <glyph glyph-name="shouye-zuyongshebei" unicode="&#58992;" d="M22.925373 384c0-270.519403 218.555224-489.074627 489.074627-489.074627s489.074627 218.555224 489.074627 489.074627M512-128C229.253731-128 0 101.253731 0 384S229.253731 896 512 896 1024 666.746269 1024 384 794.746269-128 512-128z m0 978.149254C255.235821 850.149254 45.850746 640.764179 45.850746 384S255.235821-82.149254 512-82.149254 978.149254 127.235821 978.149254 384 768.764179 850.149254 512 850.149254zM718.328358 384H512V651.462687c0 12.226866-10.698507 22.925373-22.925373 22.925373s-22.925373-10.698507-22.925373-22.925373v-290.38806c0-12.226866 10.698507-22.925373 22.925373-22.925373h229.253731c12.226866 0 22.925373 10.698507 22.925373 22.925373s-10.698507 22.925373-22.925373 22.925373z"  horiz-adv-x="1024" />

    
    <glyph glyph-name="shouye-jiankangzizhen" unicode="&#58993;" d="M98.868966 348.689655C165.958621 200.386207 316.027586 60.910345 547.310345-66.206897c3.531034-1.765517 8.827586-1.765517 14.124138 0C794.482759 60.910345 944.551724 200.386207 1011.641379 348.689655H98.868966zM794.482759 896c-61.793103 0-123.586207-14.124138-178.317242-44.137931-38.841379-21.186207-84.744828-21.186207-123.586207 0C437.848276 880.110345 376.055172 896 312.496552 896 109.462069 896 0 708.855172 0 530.537931c0-241.875862 174.786207-460.8 520.827586-649.710345 10.593103-5.296552 22.951724-8.827586 35.310345-8.827586s24.717241 3.531034 35.310345 8.827586C935.724138 71.503448 1112.275862 290.427586 1112.275862 532.303448 1112.275862 710.62069 993.986207 896 794.482759 896zM563.2-66.206897c-3.531034-1.765517-8.827586-1.765517-14.124138 0C224.22069 112.110345 58.262069 313.37931 58.262069 530.537931c0 148.303448 88.275862 303.668966 254.234483 303.668966 52.965517 0 105.931034-12.358621 151.834482-37.075863 56.496552-30.013793 121.82069-30.013793 178.317242 0C690.317241 823.613793 741.517241 835.972414 794.482759 835.972414c162.427586 0 259.531034-153.6 259.531034-303.668966 0-217.158621-165.958621-418.427586-490.813793-598.510345z"  horiz-adv-x="1112" />

    
    <glyph glyph-name="shouye-shezhizuoye" unicode="&#58994;" d="M937.625155 280.115942c-4.452174 4.452174-7.42029 10.388406-11.872464 14.84058-10.388406 14.84058-17.808696 29.681159-22.26087 47.489855H118.425155c-7.42029-22.26087-17.808696-44.521739-32.649276-62.330435-19.292754-20.776812-25.228986-51.942029-11.872463-78.655072 13.356522-43.037681 35.617391-83.107246 63.814492-117.24058 17.808696-23.744928 48.973913-34.133333 77.171015-26.713044 35.617391 7.42029 72.718841 0 103.884058-19.292753 31.165217-19.292754 54.910145-48.973913 63.814493-84.591305 11.872464-26.713043 35.617391-46.005797 63.814492-51.942029 20.776812-5.936232 43.037681-7.42029 63.814493-5.936231 22.26087-1.484058 43.037681 1.484058 63.814493 5.936231 31.165217 1.484058 56.394203 22.26087 63.814493 51.942029 8.904348 35.617391 32.649275 66.782609 63.814492 84.591305 31.165217 19.292754 68.266667 25.228986 103.884058 19.292753 26.713043-7.42029 56.394203 0 77.171015 19.292754 23.744928 38.585507 46.005797 77.171014 63.814493 117.24058 16.324638 29.681159 11.872464 62.330435-8.904348 86.075362zM953.949792 294.956522c-20.776812 25.228986-32.649275 57.878261-32.649275 90.527536-1.484058 29.681159 10.388406 60.846377 32.649275 81.623188l1.484058 1.484058c25.228986 29.681159 31.165217 71.234783 16.324638 106.852174-14.84058 46.005797-37.101449 87.55942-68.266667 123.176812-23.744928 31.165217-62.330435 44.521739-99.431884 34.133333-29.681159-5.936232-60.846377 0-86.075362 16.324638C689.787474 766.886957 670.49472 792.115942 661.590372 821.797101l-1.484058 4.452174C639.329503 867.802899 611.132401 890.063768 576.999068 891.547826c-44.521739 5.936232-89.043478 5.936232-132.08116 0-34.133333 0-62.330435-22.26087-83.107246-65.298551l-1.484058-2.968116v-2.968116C355.87443 792.115942 339.549792 769.855072 306.900517 750.562319c-25.228986-16.324638-56.394203-22.26087-86.075362-16.324638-37.101449 10.388406-77.171014-2.968116-99.431884-34.133333l-2.968116-2.968116C94.680227 658.550725 72.419358 618.481159 53.126604 576.927536c-16.324638-34.133333-8.904348-75.686957 16.324638-102.4 44.521739-51.942029 44.521739-127.628986 1.484058-179.571014C44.222256 268.243478 36.801966 228.173913 53.126604 194.04058c14.84058-46.005797 37.101449-87.55942 68.266667-123.176812 23.744928-31.165217 62.330435-44.521739 99.431884-34.133333 29.681159 5.936232 60.846377 0 86.075362-16.324638 26.713043-16.324638 46.005797-41.553623 54.910145-71.234783l1.484058-2.968115c14.84058-34.133333 44.521739-57.878261 80.13913-65.298551 22.26087-5.936232 46.005797-8.904348 69.750725-7.42029h10.388406c19.292754 0 38.585507 2.968116 56.394203 7.42029 40.069565 2.968116 72.718841 29.681159 83.107246 68.266666 7.42029 29.681159 26.713043 56.394203 54.910145 71.234783 26.713043 16.324638 56.394203 22.26087 87.55942 16.324638 34.133333-8.904348 71.234783 1.484058 96.463768 25.228985l1.484058 1.484058 1.484058 1.484058c23.744928 38.585507 46.005797 78.655072 65.298551 120.208696 16.324638 37.101449 10.388406 80.13913-16.324638 109.82029z m-23.744927-90.527536c-17.808696-38.585507-38.585507-77.171014-60.846377-112.788406-14.84058-13.356522-35.617391-17.808696-54.910145-11.872464h-1.484058c-41.553623 7.42029-83.107246-1.484058-118.724637-22.26087-37.101449-20.776812-63.814493-57.878261-74.202899-99.431884-5.936232-20.776812-22.26087-34.133333-44.521739-35.617391h-4.452174c-19.292754-4.452174-38.585507-7.42029-57.878261-5.936232h-2.968116c-19.292754-1.484058-38.585507 1.484058-59.362319 5.936232-20.776812 4.452174-38.585507 17.808696-47.489855 38.585507-11.872464 40.069565-38.585507 74.202899-74.202898 96.463768s-78.655072 31.165217-118.724638 22.26087h-1.484058c-20.776812-5.936232-41.553623 1.484058-54.910145 19.292754-26.713043 32.649275-47.489855 69.750725-60.846377 109.820289l-1.484058 2.968116c-5.936232 17.808696-2.968116 38.585507 11.872464 53.426087 59.362319 69.750725 59.362319 169.182609-1.484058 238.933334-13.356522 14.84058-17.808696 35.617391-8.904348 53.426087C112.488923 597.704348 133.265734 636.289855 155.526604 673.391304c13.356522 16.324638 34.133333 22.26087 53.426087 17.808696h1.484058c41.553623-7.42029 83.107246 0 118.724638 22.26087 43.037681 25.228986 66.782609 57.878261 74.202898 96.463768 17.808696 32.649275 32.649275 37.101449 43.037681 37.101449h2.968116c40.069565 5.936232 81.623188 5.936232 121.692754 0h2.968116c10.388406 0 26.713043-4.452174 43.037681-38.585507 11.872464-40.069565 37.101449-74.202899 72.718841-96.463768 35.617391-22.26087 78.655072-31.165217 118.724637-22.26087h1.484058c20.776812 5.936232 41.553623-1.484058 54.910145-19.292754 26.713043-32.649275 47.489855-69.750725 60.846377-109.820289v-1.484058c8.904348-20.776812 4.452174-44.521739-8.904348-62.330435-29.681159-29.681159-46.005797-71.234783-44.521739-112.788406 0-43.037681 16.324638-86.075362 44.521739-118.724638 19.292754-16.324638 22.26087-40.069565 13.356522-60.846376zM511.700517 568.023188c-100.915942 0-184.023188-83.107246-184.023188-184.023188 0-48.973913 19.292754-94.97971 53.426087-129.113043 34.133333-34.133333 80.13913-53.426087 129.113043-53.426087 100.915942 0 184.023188 83.107246 184.023189 184.023188-1.484058 99.431884-81.623188 181.055072-182.539131 182.53913z m0-323.524637c-37.101449 0-72.718841 14.84058-97.947826 40.069565-26.713043 26.713043-40.069565 60.846377-40.069565 97.947826 0 77.171014 62.330435 139.501449 139.501449 139.501449 77.171014-1.484058 138.017391-62.330435 139.501449-139.501449-1.484058-75.686957-63.814493-138.017391-140.985507-138.017391z"  horiz-adv-x="1024" />

    
    <glyph glyph-name="shouye-shujuluru" unicode="&#58995;" d="M37.384127 107.68254h274.692063v-196.673016H37.384127zM409.6 416.507937h282.819048v-503.873016H409.6zM780.190476 221.460317h286.069841v-310.450793H780.190476zM1015.873016 668.444444h-178.793651c-48.761905 0-89.396825-40.634921-89.396825-89.396825v-617.650794c0-48.761905 40.634921-89.396825 89.396825-89.396825h178.793651c48.761905 0 89.396825 40.634921 89.396825 89.396825v617.650794c0 48.761905-40.634921 89.396825-89.396825 89.396825zM1056.507937-38.603175c0-22.755556-17.879365-40.634921-40.634921-40.63492h-178.793651c-22.755556 0-40.634921 17.879365-40.634921 40.63492v617.650794c0 22.755556 17.879365 40.634921 40.634921 40.634921h178.793651c22.755556 0 40.634921-17.879365 40.634921-40.634921v-617.650794zM268.190476 489.650794h-178.793651c-48.761905 0-89.396825-40.634921-89.396825-89.396826v-438.857143c0-48.761905 40.634921-89.396825 89.396825-89.396825h178.793651c48.761905 0 89.396825 40.634921 89.396826 89.396825v438.857143c0 48.761905-40.634921 89.396825-89.396826 89.396826zM308.825397-38.603175c0-22.755556-17.879365-40.634921-40.634921-40.63492h-178.793651C66.64127-79.238095 48.761905-61.35873 48.761905-38.603175v438.857143C48.761905 423.009524 66.64127 440.888889 89.396825 440.888889h178.793651c22.755556 0 40.634921-17.879365 40.634921-40.634921v-438.857143zM642.031746 896h-178.793651c-48.761905 0-89.396825-40.634921-89.396825-89.396825v-845.20635c0-48.761905 40.634921-89.396825 89.396825-89.396825h178.793651c48.761905 0 89.396825 40.634921 89.396825 89.396825v845.20635c0 48.761905-40.634921 89.396825-89.396825 89.396825zM682.666667-38.603175c0-22.755556-17.879365-40.634921-40.634921-40.63492h-178.793651c-22.755556 0-40.634921 17.879365-40.63492 40.63492v845.20635C422.603175 829.35873 440.48254 847.238095 463.238095 847.238095h178.793651C664.787302 847.238095 682.666667 829.35873 682.666667 806.603175v-845.20635z"  horiz-adv-x="1105" />

    
    <glyph glyph-name="shouye-zuoyechaxun" unicode="&#58996;" d="M240.090361 483.317435c0-96.372396 79.111668-175.484064 175.484063-175.484063 96.372396 0 175.484064 79.111668 175.484064 175.484063s-79.111668 175.484064-175.484064 175.484064c-96.372396 0-175.484064-79.111668-175.484063-175.484064zM415.574424 286.257462c-53.220577 0-102.125972 20.137516-139.524214 57.535759-37.398243 37.398243-57.535759 86.303638-57.535759 139.524214 0 53.220577 20.137516 102.125972 57.535759 139.524215 37.398243 37.398243 86.303638 57.535759 139.524214 57.535759 53.220577 0 102.125972-20.137516 139.524215-57.535759 37.398243-37.398243 57.535759-86.303638 57.535759-139.524215s-20.137516-102.125972-57.535759-139.524214c-37.398243-37.398243-86.303638-57.535759-139.524215-57.535759z m0 350.968128c-41.713425 0-79.111668-15.822334-109.317941-44.590213-28.767879-28.767879-44.590213-67.604516-44.590213-109.317942 0-41.713425 15.822334-79.111668 44.590213-109.317941 28.767879-28.767879 67.604516-44.590213 109.317941-44.590213 41.713425 0 79.111668 15.822334 109.317942 44.590213 28.767879 28.767879 44.590213 67.604516 44.590213 109.317941 0 41.713425-15.822334 79.111668-44.590213 109.317942-30.206273 28.767879-67.604516 44.590213-109.317942 44.590213zM999.562375 33.100124L793.872037 237.352067c-12.945546 12.945546-30.206273 21.575909-47.467 25.891092 50.343789 76.23488 73.358092 165.415306 66.166122 257.47252-8.630364 107.879547-58.974153 207.128731-140.962609 277.610035S484.617335 903.328473 375.299393 894.69811c-107.879547-8.630364-207.128731-57.535759-277.610035-140.962609C27.208054 670.308651-7.313401 565.305891 1.316962 457.426344c8.630364-107.879547 58.974153-207.128731 140.962609-277.610035 139.524215-119.386699 343.776158-128.017063 493.36913-27.329486 4.315182-17.260728 11.507152-33.083061 24.452698-47.467001l205.690337-205.690337c18.699122-17.260728 41.713425-27.329485 66.166122-27.329485 24.452697 0 48.905395 10.068758 67.604517 28.767879 35.959849 37.398243 35.959849 94.934002 0 132.332245zM171.04745 211.460976C97.689358 274.75031 51.660751 363.930736 44.468781 460.303132c-7.19197 96.372396 23.014303 191.306397 86.303638 264.66449C194.061754 799.764108 281.803786 844.354321 379.614575 851.546291c96.372396 7.19197 191.306397-23.014303 264.66449-86.303638s119.386699-151.031366 126.578669-248.842156c7.19197-96.372396-23.014303-191.306397-86.303638-264.66449l-37.398243-38.836637c-135.209033-116.509911-339.460976-116.509911-476.108403-1.438394z m796.870257-280.486823c-20.137516-20.137516-51.782183-20.137516-71.919698-1.438394L691.746066 135.226096c-14.38394 14.38394-18.699122 35.959849-11.507152 54.65897 0 0 5.753576 11.507152 11.507152 17.260728 5.753576 5.753576 17.260728 11.507152 17.260727 11.507152 18.699122 7.19197 40.275031 4.315182 54.658971-11.507152L969.356101 1.455457c18.699122-20.137516 18.699122-50.343789-1.438394-70.481304z"  horiz-adv-x="1029" />

    
    <glyph glyph-name="shouye-jiankangyubao" unicode="&#58997;" d="M228.324324 211.027027l-52.583783-29.059459-30.443244-53.967568-27.675675-41.513514c13.837838-5.535135 27.675676-11.07027 41.513513-13.837837 5.535135 1.383784 636.540541 0 636.540541 0h69.189189l13.837838 41.513513v41.513514l-52.583784 35.978378-30.443243 19.372973v138.378378h-567.351352v-138.378378zM583.956757-24.216216c-17.989189-24.908108-45.664865-41.513514-74.724325-41.513514h-6.918918c-31.827027 1.383784-59.502703 16.605405-76.108109 41.513514h157.751352m59.502702 41.513513h-276.756756c8.302703-69.189189 65.037838-121.772973 134.227027-124.54054h8.302702c69.189189 0 125.924324 56.735135 134.227027 124.54054zM505.081081 833.72973c49.816216 0 52.583784-55.351351 52.583784-65.037838V729.945946l33.210811-6.918919c103.783784-22.140541 178.508108-114.854054 177.124324-221.405405V204.108108l16.605405-12.454054c45.664865-34.594595 73.340541-56.735135 85.794595-91.32973h-84.410811v-1.383783H251.848649v1.383783H150.832432c9.686486 35.978378 31.827027 58.118919 74.724325 91.32973l16.605405 12.454054V501.621622c-1.383784 106.551351 73.340541 199.264865 177.124324 220.021621l33.210811 6.918919V768.691892c0 11.07027 2.767568 65.037838 52.583784 65.037838m0 41.513513c-59.502703 0-94.097297-48.432432-94.097297-106.551351v-5.535135c-123.156757-26.291892-211.718919-135.610811-210.335135-261.535135v-276.756757c-62.27027-47.048649-92.713514-83.027027-96.864865-166.054054h106.551351v-1.383784h617.167568v1.383784h92.713513c-4.151351 83.027027-48.432432 119.005405-110.702702 166.054054v276.756757c1.383784 125.924324-87.178378 235.243243-210.335136 261.535135v5.535135c0 58.118919-34.594595 106.551351-94.097297 106.551351zM417.902703 771.459459h179.891892v-41.513513h-179.891892z"  horiz-adv-x="1024" />

    
    <glyph glyph-name="shouye-woyaofuwu" unicode="&#58998;" d="M1044.48 512c-11.52 37.12-46.08 62.72-92.16 69.12l-230.4 34.56-103.68 212.48C599.04 870.4 563.2 896 524.8 896s-74.24-25.6-94.72-66.56l-103.68-213.76-230.4-34.56C51.2 574.72 16.64 549.12 5.12 512c-12.8-37.12 0-79.36 33.28-111.36l167.68-166.4L165.12 0c-7.68-46.08 6.4-88.32 38.4-110.08 15.36-11.52 34.56-16.64 55.04-16.64 19.2 0 39.68 5.12 60.16 15.36L524.8-1.28l206.08-110.08c40.96-21.76 83.2-21.76 113.92 1.28 32 23.04 46.08 64 38.4 110.08l-39.68 234.24 167.68 166.4c33.28 32 46.08 74.24 33.28 111.36z m-69.12-75.52L788.48 252.16 832-8.96c5.12-26.88-2.56-49.92-17.92-60.16-15.36-10.24-37.12-10.24-60.16 2.56l-230.4 122.88-230.4-122.88c-23.04-12.8-44.8-12.8-60.16-2.56-15.36 11.52-21.76 33.28-17.92 60.16l43.52 261.12L74.24 436.48c-19.2 19.2-26.88 40.96-20.48 58.88 6.4 17.92 24.32 30.72 49.92 34.56l257.28 38.4 115.2 238.08c11.52 24.32 29.44 38.4 48.64 38.4s35.84-14.08 48.64-38.4l115.2-238.08 257.28-38.4c25.6-3.84 44.8-16.64 49.92-34.56 6.4-17.92-1.28-39.68-20.48-58.88zM384 407.04c12.8-7.68 28.16-7.68 39.68 0 19.2 11.52 25.6 37.12 14.08 56.32-3.84 6.4-8.96 10.24-14.08 14.08-12.8 7.68-28.16 7.68-39.68 0-12.8-7.68-20.48-20.48-20.48-35.84 0-14.08 7.68-26.88 20.48-34.56zM622.08 320c-12.8-1.28-21.76-12.8-20.48-25.6 0-15.36-2.56-32-8.96-46.08-8.96-28.16-37.12-46.08-66.56-43.52-30.72-2.56-58.88 15.36-69.12 43.52-5.12 10.24-7.68 21.76-8.96 33.28v14.08c1.28 11.52-7.68 23.04-19.2 24.32-11.52 1.28-23.04-7.68-24.32-19.2v-5.12c0-23.04 5.12-47.36 15.36-67.84 16.64-44.8 60.16-72.96 107.52-71.68 47.36-2.56 90.88 26.88 106.24 71.68 5.12 14.08 8.96 28.16 10.24 43.52 1.28 7.68 1.28 16.64 1.28 24.32v1.28c0 11.52-10.24 21.76-23.04 23.04zM660.48 477.44c-12.8 7.68-28.16 7.68-39.68 0-12.8-7.68-20.48-20.48-20.48-35.84 0-14.08 7.68-28.16 20.48-35.84 12.8-7.68 28.16-7.68 39.68 0 19.2 11.52 25.6 37.12 14.08 56.32-3.84 7.68-8.96 12.8-14.08 15.36z"  horiz-adv-x="1049" />

    
    <glyph glyph-name="shouye-kuaisugouyao" unicode="&#58999;" d="M537.103605 238.177215l324.050633 14.582279 76.151898 93.974683 32.405064 124.759494H195.230187l46.987342-343.493671 46.987342-45.367089 45.367088-16.202531h539.544304l46.987342 30.78481-16.202532 30.78481-37.265823 37.265823-500.658228-21.063291-46.987341 30.78481v53.468354zM326.470693 108.556962h550.886076v-48.607595h-550.886076zM985.913731 742.075949C963.230187 768 930.825124 782.582278 896.799807 782.582278H238.977022c-9.721519 64.810127-64.810127 111.797468-129.620253 113.417722H62.369428C28.344111 896 0.799807 868.455696 0.799807 834.43038c0-34.025316 27.544304-61.56962 61.569621-61.569621h45.367088c6.481013-1.620253 11.341772-6.481013 11.341772-12.962025l35.64557-178.227848 63.189873-400.202532c6.481013-59.949367 46.987342-105.316456 97.21519-116.658227-34.025316-16.202532-56.708861-48.607595-58.329114-89.113924 0-25.924051 9.721519-51.848101 27.544304-71.29114 17.822785-19.443038 43.746835-29.164557 69.670886-30.78481h1.620253c25.924051 0 50.227848 9.721519 69.670886 27.544304 19.443038 17.822785 29.164557 43.746835 30.784811 71.291139 0 37.265823-21.063291 71.291139-51.848102 87.493671H729.913731c-30.78481-16.202532-51.848101-48.607595-51.848101-85.873418 0-25.924051 9.721519-51.848101 27.544304-71.291139 17.822785-19.443038 43.746835-29.164557 69.670886-30.78481h1.620253c53.468354 0 98.835443 43.746835 98.835443 98.835443 0 25.924051-9.721519 51.848101-27.544304 69.670886-6.481013 6.481013-14.582278 12.962025-22.683544 17.822785h32.405063v48.607595H341.052972c-38.886076 0-69.670886 32.405063-76.151899 77.772152l-63.189873 401.822785L167.685883 766.379747C162.825124 795.544304 140.141579 818.227848 110.977022 821.468354h-48.607594c-8.101266 0-12.962025 4.860759-12.962026 12.962026 0 6.481013 4.860759 12.962025 12.962026 12.962025h45.367088c42.126582-1.620253 79.392405-34.025316 84.253165-77.772152l6.481012-35.645569h696.708861c21.063291 0 40.506329-9.721519 55.088608-24.303798l1.620253-1.620253c16.202532-14.582278 22.683544-37.265823 19.443038-56.708861l-58.329114-275.443038v-1.620253c-4.860759-42.126582-40.506329-72.911392-84.253165-74.531646l-547.645569-38.886076 9.721519-68.050632c0-25.924051 19.443038-46.987342 45.367088-50.227849H874.116263c16.202532 0 19.443038-4.860759 19.443038-16.202531 0-9.721519-3.240506-16.202532-19.443038-16.202532v-48.607595c35.64557 0 64.810127 29.164557 64.810127 64.810127 0 34.025316-25.924051 61.56962-58.329114 64.810126H341.052972c-1.620253 0-1.620253 0-1.620253 1.620254v3.240506l-3.240507 19.443038 495.797469 35.64557c66.43038 1.620253 121.518987 50.227848 129.620253 116.658227l58.329114 275.443038c6.481013 35.64557-6.481013 72.911392-34.025317 98.835443zM778.521326 24.303797c29.164557 0 51.848101-22.683544 51.848102-51.848101 0-27.544304-22.683544-50.227848-51.848102-50.227848h-1.620253c-27.544304 0-50.227848 24.303797-50.227848 51.848101 0 27.544304 22.683544 50.227848 51.848101 50.227848z m-421.265823 0c29.164557 0 51.848101-22.683544 51.848102-51.848101 0-12.962025-6.481013-25.924051-16.202532-35.645569-9.721519-9.721519-22.683544-14.582278-35.64557-14.582279-12.962025 0-25.924051 6.481013-35.645569 16.202532s-14.582278 22.683544-14.582279 35.645569c0 27.544304 22.683544 50.227848 50.227848 50.227848z"  horiz-adv-x="1024" />

    
    <glyph glyph-name="wo-yaopinqixie" unicode="&#59000;" d="M119.51585 237.925072l131.319885 64.92219 538.559078-16.230547 113.613833-48.691643-473.636888-147.550432-309.855908 147.550432zM119.51585 450.397695l97.383285 64.92219 554.789626-16.230548 131.319885-48.691642M134.270893 462.201729l-95.907781-48.691643c-14.755043-7.377522-20.657061-26.559078-13.279539-41.314121 2.951009-5.902017 7.377522-10.32853 13.279539-13.279538l454.455332-247.884727c8.853026-4.426513 20.657061-4.426513 29.510086 0l458.881845 247.884727c14.755043 7.377522 20.657061 26.559078 11.804034 41.314121-2.951009 5.902017-7.377522 10.32853-13.279539 13.279538l-91.481268 45.740634M128.368876 240.876081l-90.005764-41.314121c-10.32853-4.426513-16.230548-14.755043-16.230547-26.559078s5.902017-22.132565 16.230547-28.034582l454.455332-247.884727c8.853026-4.426513 20.657061-4.426513 29.510086 0l458.881845 247.884727c10.32853 5.902017 16.230548 16.230548 16.230547 28.034582 0 11.804035-7.377522 22.132565-16.230547 26.559078l-85.579251 42.789625M512 873.867435L56.069164 654.017291l-16.230547-33.936599L73.775216 569.913545 241.982709 468.103746 427.896254 367.769452l67.873198-33.936599H545.936599l151.976946 84.103746 169.682997 101.809799 118.040346 50.167147 16.230547 33.936599-50.167147 50.167147L630.040346 823.700288l-118.040346 50.167147zM506.097983-128c-8.853026 0-17.706052 1.475504-25.083574 5.902017L28.034582 125.786744C10.32853 136.115274 0 153.821326 0 173.002882c0 19.181556 11.804035 36.887608 29.510086 45.740634l107.711816 59.020173c1.475504 0 1.475504 1.475504 2.951009 1.475504l-112.138329 60.495677c-8.853026 4.426513-17.706052 13.279539-22.132565 22.132565-13.279539 26.559078-2.951009 57.544669 23.608069 70.824208l126.893372 63.446686-123.942363 67.873198c-8.853026 4.426513-16.230548 13.279539-22.132565 22.132565-5.902017 14.755043-7.377522 29.510086-2.951008 42.789626 4.426513 13.279539 13.279539 23.608069 26.559077 30.98559L492.818444 890.097983c14.755043 7.377522 32.461095 7.377522 47.216138 0L994.489914 659.919308c10.32853-4.426513 17.706052-11.804035 22.132564-22.132564 7.377522-11.804035 8.853026-26.559078 4.426513-39.838617s-13.279539-25.083573-25.083573-30.985591L867.596542 497.613833l122.466859-61.971182c10.32853-4.426513 17.706052-11.804035 22.132564-22.132565 13.279539-25.083573 4.426513-57.544669-20.65706-70.824207l-118.040346-63.446686 116.564842-57.544669c17.706052-8.853026 28.034582-26.559078 29.510086-45.740634 0-19.181556-10.32853-38.363112-28.034582-47.216138L531.181556-122.097983c-7.377522-4.426513-16.230548-5.902017-25.083573-5.902017zM168.207493 264.48415c1.475504-8.853026-2.951009-19.181556-10.32853-23.608069l-107.711816-59.020173c-4.426513-2.951009-5.902017-5.902017-5.902017-8.853026 0-2.951009 1.475504-5.902017 4.426513-7.377522l454.455331-247.884726c2.951009-1.475504 5.902017-1.475504 7.377522 0l458.881844 247.884726c2.951009 1.475504 4.426513 4.426513 4.426513 7.377522s-1.475504 5.902017-4.426513 7.377521l-120.991354 60.495678c-7.377522 2.951009-11.804035 10.32853-11.804035 17.706052L531.181556 93.325648c-16.230548-8.853026-33.936599-8.853026-50.167147 0L168.207493 264.48415zM191.815562 478.432277c0-7.377522-4.426513-14.755043-11.804035-17.706052L48.691643 394.32853c-4.426513-1.475504-5.902017-7.377522-4.426513-11.804034 1.475504-1.475504 1.475504-2.951009 2.951008-2.951009L501.67147 131.688761c2.951009-1.475504 5.902017-1.475504 7.377521 0L969.40634 379.573487c4.426513 2.951009 5.902017 7.377522 2.951009 11.804035-1.475504 1.475504-1.475504 2.951009-2.951009 2.951008l-126.893372 63.446686c-7.377522 2.951009-11.804035 10.32853-11.804034 17.706052L537.083573 317.602305c-16.230548-8.853026-33.936599-8.853026-50.167146 0L191.815562 478.432277z m-137.221902 126.893371l454.455331-247.884726c2.951009-1.475504 5.902017-1.475504 7.377522 0l458.881844 247.884726c2.951009 1.475504 4.426513 4.426513 4.426513 4.426513 0 1.475504 1.475504 4.426513 0 5.902018-1.475504 1.475504-1.475504 2.951009-2.951008 2.951008L520.853026 851.73487h-7.377522L54.59366 620.080692c-2.951009-1.475504-4.426513-4.426513-4.426513-4.426513 0-1.475504-1.475504-4.426513 0-5.902018 1.475504-2.951009 1.475504-4.426513 4.426513-4.426513z"  horiz-adv-x="1024" />

    
    <glyph glyph-name="wo-jiankangriji" unicode="&#59001;" d="M52.337778 395.377778H967.111111v-392.912593c0-59.164444-48.545185-107.70963-107.70963-107.709629H188.871111c-75.851852 0-138.05037 62.198519-138.05037 138.05037V395.377778zM845.748148 827.733333h-106.192592v45.511111c0 12.136296-10.619259 22.755556-22.755556 22.755556S694.044444 885.380741 694.044444 873.244444v-45.511111H329.955556v45.511111c0 12.136296-10.619259 22.755556-22.755556 22.755556S284.444444 885.380741 284.444444 873.244444v-45.511111h-106.192592C99.365926 827.733333 34.133333 762.500741 34.133333 683.614815v-667.496296c0-78.885926 65.232593-144.118519 144.118519-144.118519h667.496296c78.885926 0 144.118519 65.232593 144.118519 144.118519V683.614815c0 78.885926-65.232593 144.118519-144.118519 144.118518zM944.355556 16.118519c0-54.613333-43.994074-98.607407-98.607408-98.607408H178.251852c-54.613333 0-98.607407 43.994074-98.607408 98.607408V683.614815c0 54.613333 43.994074 98.607407 98.607408 98.607407h106.192592v-75.851852c0-12.136296 10.619259-22.755556 22.755556-22.755555s22.755556 10.619259 22.755556 22.755555v75.851852h364.088888v-75.851852c0-12.136296 10.619259-22.755556 22.755556-22.755555s22.755556 10.619259 22.755556 22.755555v75.851852h106.192592c54.613333 0 98.607407-43.994074 98.607408-98.607407v-667.496296zM716.8 274.014815h-409.6c-12.136296 0-22.755556-10.619259-22.755556-22.755556s10.619259-22.755556 22.755556-22.755555h409.6c12.136296 0 22.755556 10.619259 22.755556 22.755555s-10.619259 22.755556-22.755556 22.755556zM716.8 471.22963h-409.6c-12.136296 0-22.755556-10.619259-22.755556-22.755556s10.619259-22.755556 22.755556-22.755555h409.6c12.136296 0 22.755556 10.619259 22.755556 22.755555s-10.619259 22.755556-22.755556 22.755556z"  horiz-adv-x="1024" />

    
    <glyph glyph-name="wo-shujuluru" unicode="&#59002;" d="M33.623881 139.462687h264.40597v-233.838806H33.623881zM389.731343 368.716418h279.689553v-458.507463H389.731343zM767.235821 246.447761h273.576119v-336.238806H767.235821zM985.791045 682.029851h-168.119403c-45.850746 0-84.059701-38.208955-84.059702-84.059702v-641.910448c0-45.850746 38.208955-84.059701 84.059702-84.059701h168.119403c45.850746 0 84.059701 38.208955 84.059701 84.059701v641.910448c0 45.850746-38.208955 84.059701-84.059701 84.059702zM1024-43.940299c0-21.397015-16.81194-38.208955-38.208955-38.208955h-168.119403c-21.397015 0-38.208955 16.81194-38.208955 38.208955v641.910448c0 21.397015 16.81194 38.208955 38.208955 38.208955h168.119403c21.397015 0 38.208955-16.81194 38.208955-38.208955v-641.910448zM252.179104 513.910448h-168.119403c-45.850746 0-84.059701-38.208955-84.059701-84.059702v-473.791045c0-45.850746 38.208955-84.059701 84.059701-84.059701h168.119403c45.850746 0 84.059701 38.208955 84.059702 84.059701v473.791045c0 45.850746-38.208955 84.059701-84.059702 84.059702zM290.38806-43.940299c0-21.397015-16.81194-38.208955-38.208956-38.208955h-168.119403C62.662687-82.149254 45.850746-65.337313 45.850746-43.940299v473.791045C45.850746 451.247761 62.662687 468.059701 84.059701 468.059701h168.119403c21.397015 0 38.208955-16.81194 38.208956-38.208955v-473.791045zM618.985075 896h-168.119403c-45.850746 0-84.059701-38.208955-84.059702-84.059701v-855.880598c0-45.850746 38.208955-84.059701 84.059702-84.059701h168.119403c45.850746 0 84.059701 38.208955 84.059701 84.059701v855.880598c0 45.850746-38.208955 84.059701-84.059701 84.059701zM657.19403-43.940299c0-21.397015-16.81194-38.208955-38.208955-38.208955h-168.119403c-21.397015 0-38.208955 16.81194-38.208956 38.208955v855.880598C412.656716 833.337313 429.468657 850.149254 450.865672 850.149254h168.119403C640.38209 850.149254 657.19403 833.337313 657.19403 811.940299v-855.880598z"  horiz-adv-x="1069" />

    
    <glyph glyph-name="wo-wodexinxi" unicode="&#59003;" d="M1030.301538-104.369231H26.781538S4.726154 38.990769 94.523077 102.006154c25.206154 17.329231 55.138462 29.932308 85.070769 36.233846h633.304616c22.055385-4.726154 45.686154 3.150769 67.741538-1.575385 29.932308-6.301538 58.289231-18.904615 83.495385-34.658461 88.221538-63.015385 66.166154-206.375385 66.166153-206.375385z m-505.698461 976.738462h6.301538-6.301538zM1050.781538-128H6.301538l-3.150769 20.48c-1.575385 6.301538-23.630769 159.113846 77.193846 230.006154 28.356923 18.904615 59.864615 31.507692 92.947693 39.384615 12.603077 3.150769 25.206154 6.301538 39.384615 9.452308 64.590769 14.178462 126.030769 28.356923 171.716923 88.221538 4.726154 7.876923 4.726154 37.809231-39.384615 92.947693-91.372308 111.852308-75.618462 281.993846-64.590769 349.735384C300.898462 810.929231 406.449231 896 527.753846 896h7.876923c118.153846-3.150769 220.553846-86.646154 239.458462-196.923077 9.452308-51.987692 29.932308-234.732308-64.590769-349.735385-44.110769-53.563077-44.110769-83.495385-39.384616-91.372307l1.575385-1.575385h-1.575385c45.686154-59.864615 107.126154-74.043077 171.716923-88.221538l42.535385-9.452308c31.507692-7.876923 63.015385-20.48 89.796923-37.809231 100.824615-70.892308 78.769231-223.704615 77.193846-230.006154l-1.575385-18.904615zM47.261538-80.738462h960.984616c1.575385 37.809231-1.575385 122.88-59.864616 163.84-22.055385 14.178462-47.261538 25.206154-75.618461 31.507693-14.178462 3.150769-26.781538 6.301538-40.96 9.452307-67.741538 14.178462-143.36 31.507692-198.498462 105.55077-7.876923 9.452308-37.809231 56.713846 39.384616 151.236923 81.92 99.249231 63.015385 263.089231 53.563077 311.926154C713.649231 780.996923 627.003077 848.738462 527.753846 848.738462h-3.150769c-97.673846-1.575385-181.169231-69.316923-196.923077-157.538462-7.876923-47.261538-28.356923-212.676923 53.563077-311.926154 77.193846-94.523077 47.261538-141.784615 39.384615-151.236923-56.713846-74.043077-132.332308-89.796923-200.073846-105.550769l-37.809231-9.452308c-28.356923-6.301538-53.563077-17.329231-77.193846-33.083077C48.836923 40.566154 45.686154-42.929231 47.261538-80.738462z m338.707693 338.707693z m283.569231 1.575384z"  horiz-adv-x="1055" />

    
    <glyph glyph-name="label_wodezuoye" unicode="&#59004;" d="M1077.426087 493.078261L647.791304 853.704348C618.852174 880.417391 583.234783 896 545.391304 896c-37.843478 0-73.46087-15.582609-100.173913-40.069565L35.617391 493.078261c-22.26087-22.26087-35.617391-53.426087-35.617391-84.591304v-13.356522c4.452174-57.878261 53.426087-102.4 111.304348-100.173913v-311.652174c0-89.043478 22.26087-111.304348 111.304348-111.304348h667.826087c89.043478 0 111.304348 22.26087 111.304347 111.304348V294.956522h11.130435c57.878261 4.452174 102.4 53.426087 100.173913 111.304348 0 31.165217-13.356522 62.330435-35.617391 86.817391zM422.956522-83.478261V183.652174c0 24.486957 20.034783 44.521739 44.521739 44.521739h178.086956c24.486957 0 44.521739-20.034783 44.52174-44.521739v-267.130435H422.956522z m587.686956 422.956522H957.217391v-356.173913c0-64.556522-2.226087-66.782609-66.782608-66.782609h-155.826087V183.652174c0 48.973913-40.069565 89.043478-89.043479 89.043478h-178.086956c-48.973913 0-89.043478-40.069565-89.043478-89.043478v-267.130435h-155.826087c-64.556522 0-66.782609 2.226087-66.782609 66.782609V339.478261H109.078261c-33.391304-2.226087-62.330435 24.486957-64.556522 57.878261V406.26087c0 20.034783 8.904348 40.069565 22.26087 53.426087L476.382609 822.53913c17.808696 17.808696 42.295652 28.93913 69.008695 28.939131 26.713043 0 51.2-11.130435 71.234783-28.939131L1046.26087 459.686957c13.356522-15.582609 22.26087-33.391304 22.260869-55.652174 2.226087-33.391304-24.486957-62.330435-57.878261-64.556522z"  horiz-adv-x="1113" />

    
    <glyph glyph-name="label_wo_xiangying" unicode="&#59005;" d="M524.17155 896zM976.636666 88.706977c-26.195349 16.669767-54.772093 30.95814-85.730233 38.102325-80.967442 21.432558-171.460465 26.195349-235.758139 111.925582 0 0-33.339535 38.102326 40.483721 128.595349 73.823256 90.493023 80.967442 235.75814 61.916279 345.302325C738.497131 822.176744 633.715736 896 524.17155 896c-109.544186 0-214.325581-73.823256-230.995349-185.748837-19.051163-111.925581-11.906977-254.809302 61.916279-345.302326 73.823256-90.493023 40.483721-128.595349 40.483721-128.595349-64.297674-83.348837-154.790698-90.493023-233.376744-111.925581-30.95814-7.144186-61.916279-19.051163-88.111628-38.102326-95.255814-64.297674-71.44186-214.325581-71.441861-214.325581h1043.051163s23.813953 150.027907-69.060465 216.706977z"  horiz-adv-x="1048" />

    
    <glyph glyph-name="wo-jiankangdangan" unicode="&#59006;" d="M74.889552-82.149254c-13.755224 1.528358-25.98209 12.226866-29.038806 27.510448V391.641791h993.432836v-447.808955c0-7.641791-1.528358-25.98209-10.698507-25.98209H74.889552zM45.850746 419.152239c0 1.528358 0 3.056716 1.528358 4.585074l-1.528358-7.641791v3.056717z m988.847761 15.283582c3.056716-4.585075 4.585075-9.170149 4.585075-13.755224v-3.056716l-4.585075 16.81194zM1016.358209 368.716418v-427.940299H76.41791c-4.585075 0-7.641791 3.056716-7.641791 6.113433V367.18806l947.58209 1.528358m-137.552239 504.358209l-674.00597-1.528358c-42.79403 0-68.776119-18.340299-85.58806-58.077612 0-1.528358 0-1.528358-1.528358-3.056717l-84.059701-366.80597c-6.113433-6.113433-10.698507-15.283582-10.698508-24.453731v-475.319403c3.056716-25.98209 25.98209-47.379104 51.964179-48.907463h952.167164c24.453731 0 33.623881 24.453731 33.623881 48.907463V419.152239c1.528358 12.226866-3.056716 24.453731-10.698507 33.62388L965.922388 811.940299v1.528358c-15.283582 36.680597-33.623881 59.60597-87.116418 59.60597z m-810.029851-458.507463l91.701493 382.089552c9.170149 21.397015 16.81194 29.038806 44.322388 29.038806l675.534328 1.528359c30.567164 0 36.680597-7.641791 44.322388-29.038806l91.701493-385.146269h-947.58209v1.528358zM244.537313 720.238806h596.059702c12.226866 0 22.925373-10.698507 22.925373-22.925373s-10.698507-22.925373-22.925373-22.925373H244.537313c-12.226866 0-22.925373 10.698507-22.925373 22.925373s10.698507 22.925373 22.925373 22.925373zM275.104478 613.253731h534.925373c12.226866 0 22.925373-10.698507 22.925373-22.925373s-10.698507-22.925373-22.925373-22.925373H275.104478c-12.226866 0-22.925373 10.698507-22.925374 22.925373s10.698507 22.925373 22.925374 22.925373zM298.029851 277.014925h489.074627c25.98209 0 45.850746-19.868657 45.850746-45.850746v-152.835821c0-25.98209-19.868657-45.850746-45.850746-45.850746h-489.074627c-25.98209 0-45.850746 19.868657-45.850747 45.850746v152.835821c0 24.453731 19.868657 45.850746 45.850747 45.850746zM787.104478 9.552239h-489.074627C259.820896 9.552239 229.253731 40.119403 229.253731 78.328358v152.835821c0 38.208955 30.567164 68.776119 68.77612 68.77612h489.074627c38.208955 0 68.776119-30.567164 68.776119-68.77612v-152.835821c0-38.208955-30.567164-68.776119-68.776119-68.776119z m-489.074627 244.537313c-12.226866 0-22.925373-10.698507-22.925373-22.925373v-152.835821c0-13.755224 9.170149-22.925373 22.925373-22.925373h489.074627c13.755224 0 22.925373 9.170149 22.925373 22.925373v152.835821c0 13.755224-9.170149 22.925373-22.925373 22.925373h-489.074627z"  horiz-adv-x="1085" />

    
    <glyph glyph-name="nav_fanhui_baise" unicode="&#59007;" d="M912.695652 896H111.304348C48.973913 896 0 847.026087 0 784.695652v-801.391304c0-62.330435 48.973913-111.304348 111.304348-111.304348h801.391304c62.330435 0 111.304348 48.973913 111.304348 111.304348V784.695652c0 62.330435-48.973913 111.304348-111.304348 111.304348z m66.782609-912.695652c0-37.843478-28.93913-66.782609-66.782609-66.782609H111.304348c-37.843478 0-66.782609 28.93913-66.782609 66.782609V784.695652c0 37.843478 28.93913 66.782609 66.782609 66.782609h801.391304c37.843478 0 66.782609-28.93913 66.782609-66.782609v-801.391304zM391.791304 384l251.547826 258.226087c13.356522 13.356522 13.356522 33.391304 0 46.747826-13.356522 13.356522-33.391304 13.356522-46.747826 0L338.365217 424.069565c-22.26087-22.26087-22.26087-57.878261 0-82.365217l256-262.678261c6.678261-6.678261 15.582609-11.130435 24.486957-11.130435 8.904348 0 17.808696 2.226087 22.260869 8.904348 13.356522 13.356522 13.356522 33.391304 0 46.747826L391.791304 384z"  horiz-adv-x="1024" />

    
    <glyph glyph-name="nav_shezhi" unicode="&#59008;" d="M944.017704 303.265469c-20.439122 22.483034-30.658683 53.141717-30.658683 83.800399 0 26.570858 10.219561 55.185629 28.614771 73.580839l2.043912 2.043912c26.570858 32.702595 32.702595 75.62475 18.39521 112.415169-14.307385 44.966068-36.790419 87.888224-67.449102 122.634731-24.526946 32.702595-65.40519 47.00998-106.283433 36.790419-26.570858-4.087824-53.141717 0-75.624751 16.351298-24.526946 14.307385-40.878244 38.834331-49.053892 65.405189l-2.043912 6.131737C639.47479 867.38523 610.860019 889.868263 574.0696 891.912176c-42.922156 6.131737-85.844311 6.131737-128.766467 0-36.790419-2.043912-65.40519-24.526946-87.888223-69.493014l-2.043913-8.175649c-6.131737-26.570858-22.483034-49.053892-47.00998-61.317365l-2.043912-2.043912c-22.483034-14.307385-49.053892-20.439122-75.62475-14.307386-38.834331 10.219561-79.712575-4.087824-104.239521-36.790419l-2.043912-2.043912c-24.526946-38.834331-44.966068-77.668663-63.361278-118.546906-16.351297-36.790419-10.219561-81.756487 16.351297-110.371258 40.878244-49.053892 40.878244-118.546906 2.043913-165.556886-26.570858-28.61477-34.746507-71.536926-18.39521-108.327345 14.307385-44.966068 36.790419-87.888224 65.40519-122.634731 24.526946-32.702595 65.40519-47.00998 106.283433-36.790419 26.570858 4.087824 53.141717 0 75.62475-16.351297 24.526946-14.307385 40.878244-38.834331 49.053893-65.40519l2.043912-4.087824c14.307385-36.790419 47.00998-61.317365 81.756487-69.493014 22.483034-6.131737 47.00998-8.175649 69.493014-8.175649h10.219561c18.39521 0 38.834331 2.043912 57.229541 6.131737 40.878244 4.087824 77.668663 32.702595 87.888223 73.580838 6.131737 26.570858 24.526946 51.097804 49.053892 65.405189 22.483034 14.307385 51.097804 20.439122 77.668663 14.307386 36.790419-8.175649 73.580838 2.043912 102.195609 26.570858l2.043912 2.043912 2.043912 4.087825c24.526946 38.834331 44.966068 77.668663 63.361278 118.546906 16.351297 42.922156 10.219561 87.888224-18.39521 120.590818z m-38.834331-89.932136C888.832075 176.542914 868.392953 139.752495 847.953832 105.005988c-12.263473-10.219561-28.61477-14.307385-42.922156-10.219561h-2.043912c-42.922156 8.175649-85.844311 0-120.590819-22.483034-38.834331-22.483034-65.40519-59.273453-75.62475-102.195609-4.087824-16.351297-18.39521-26.570858-34.746507-28.61477h-6.131737c-18.39521-6.131737-36.790419-6.131737-53.141716-6.131737h-4.087824c-18.39521 0-34.746507 0-55.185629 6.131737-18.39521 4.087824-32.702595 14.307385-38.834332 30.658683-12.263473 40.878244-38.834331 75.62475-73.580838 98.107784-36.790419 24.526946-79.712575 32.702595-122.63473 24.526946h-2.043913c-16.351297-4.087824-32.702595 2.043912-42.922155 16.351298-26.570858 30.658683-44.966068 67.449102-57.229541 104.239521l-2.043912 4.087824c-6.131737 14.307385-4.087824 30.658683 8.175648 44.966068 59.273453 71.536926 59.273453 173.732535-2.043912 245.269461-10.219561 12.263473-14.307385 28.61477-6.131736 42.922155 18.39521 38.834331 38.834331 75.62475 61.317365 110.371258 10.219561 12.263473 26.570858 18.39521 40.878243 14.307385h2.043913c42.922156-8.175649 85.844311 0 120.590818 22.483034 38.834331 20.439122 65.40519 57.229541 75.62475 100.151697 16.351297 30.658683 28.61477 30.658683 32.702595 30.658682h4.087825c38.834331 6.131737 77.668663 6.131737 114.459081 0h4.087825c4.087824 0 18.39521 0 32.702595-32.702594 12.263473-40.878244 38.834331-75.62475 73.580838-98.107785 36.790419-24.526946 79.712575-32.702595 122.63473-24.526946h2.043913c16.351297 4.087824 32.702595-2.043912 42.922155-16.351297 26.570858-30.658683 44.966068-67.449102 57.229541-104.239521v-2.043913c6.131737-16.351297 4.087824-36.790419-6.131736-51.097804-30.658683-30.658683-47.00998-73.580838-44.966068-116.502994 0-44.966068 16.351297-87.888224 44.966068-122.63473 14.307385-12.263473 18.39521-32.702595 10.219561-49.053893zM520.927884 548.53493c-96.063872 2.043912-175.776447-73.580838-179.864272-169.64471-2.043912-96.063872 73.580838-175.776447 169.644711-179.864272h4.087824c94.01996 0 171.688623 75.62475 173.732535 169.644711v4.087824c2.043912 96.063872-71.536926 173.732535-167.600798 175.776447z m108.327345-175.776447c-2.043912-61.317365-51.097804-110.371257-112.41517-110.371257h-4.087824c-63.361277 2.043912-112.41517 53.141717-110.371258 116.502994 2.043912 61.317365 53.141717 110.371257 112.41517 110.371257h4.087824c61.317365-2.043912 110.371257-51.097804 110.371258-112.41517v-4.087824z"  horiz-adv-x="1024" />

    
    <glyph glyph-name="wo-weidenglutouxiang" unicode="&#59009;" d="M511.693597 383.693597m-499.437463 0a499.437463 499.437463 0 1 1 998.874925 0 499.437463 499.437463 0 1 1-998.874925 0ZM511.693597-128C229.802513-128 0 101.802513 0 383.693597 0 666.197487 229.802513 896 511.693597 896c282.50389 0 511.693597-229.802513 511.693596-511.693597 0-282.50389-229.189707-512.306403-511.693596-512.306403z m0 999.487732C243.284261 871.487732 24.512268 652.715739 24.512268 383.693597S243.284261-103.487732 511.693597-103.487732 998.874925 115.284261 998.874925 383.693597 780.715739 871.487732 511.693597 871.487732zM511.693597 383.693597m-499.437463 0a499.437463 499.437463 0 1 1 998.874925 0 499.437463 499.437463 0 1 1-998.874925 0ZM908.79234 129.378815c9.192101 14.094554 15.932974 26.350688 23.899461 41.670856 1.83842 3.064034 3.67684 6.740874 4.902454 10.417714 5.51526 11.643327 10.417714 23.286655 14.707361 34.317175 2.451227 4.902454 3.67684 9.192101 5.51526 14.707361 3.67684 11.643327 6.740874 22.061041 10.417714 33.704369 1.225613 5.51526 3.67684 10.417714 4.902454 15.932974 2.451227 11.643327 4.902454 23.899461 6.740873 35.542789 1.225613 4.902454 1.83842 9.804907 2.451227 14.707361 2.451227 17.771394 3.67684 35.542789 3.67684 52.701376 0 260.442849-211.418312 471.861161-471.861161 471.861161s-471.861161-211.418312-471.861161-471.861161c0-17.771394 1.225613-35.542789 3.676841-52.701376 1.225613-5.51526 1.225613-10.417714 2.451227-15.932975 1.225613-10.417714 3.67684-23.286655 5.51526-34.317175 0.612807-5.51526 2.451227-11.030521 4.902453-15.932974 3.67684-11.643327 6.740874-23.286655 10.417714-33.704369 1.83842-4.902454 3.67684-10.417714 5.515261-14.707361 4.289647-11.643327 9.192101-23.286655 14.707361-34.317175 1.225613-3.67684 3.67684-6.740874 4.902453-10.417714 7.35368-14.094554 15.320168-28.189108 23.899462-41.670856l1.225613-1.225613c139.719928-217.546379 429.577499-281.278276 647.123878-141.558349 56.991023 36.155595 104.789946 84.567325 141.558348 141.558349l0.612807 1.225613zM513.532017 630.654698c95.597846 0 173.424297-77.826451 173.424297-173.424297 0-95.597846-77.826451-173.424297-173.424297-173.424297-95.597846 0-173.424297 77.826451-173.424297 173.424297v0.612807c0.612807 95.597846 77.826451 172.81149 173.424297 172.81149z m-286.18073-541.108319c68.634351 158.104129 252.476361 230.41532 410.58049 161.78097 72.311191-31.253142 130.527828-89.469779 161.78097-161.78097-76.600838-74.762418-179.552364-116.433273-286.18073-116.433273-107.241173-0.612807-209.579892 41.058049-286.18073 116.433273z"  horiz-adv-x="1024" />

    
    <glyph glyph-name="weixuanzhong" unicode="&#59010;" d="M512-128c-138.017391 0-264.904348 53.426087-362.852174 149.147826S0 248.208696 0 384c0 135.791304 53.426087 264.904348 149.147826 362.852174C247.095652 842.573913 373.982609 896 512 896c282.713043 0 512-229.286957 512-512S794.713043-128 512-128z m0 979.478261C387.33913 851.478261 269.356522 802.504348 180.313043 715.686957 93.495652 626.643478 44.521739 508.66087 44.521739 384s48.973913-242.643478 135.791304-331.686957c89.043478-89.043478 204.8-138.017391 331.686957-138.017391 258.226087 0 467.478261 209.252174 467.478261 467.478261C979.478261 642.226087 770.226087 851.478261 512 851.478261z"  horiz-adv-x="1024" />

    
    <glyph glyph-name="xuanzhong" unicode="&#59011;" d="M512 873.73913C240.417391 873.73913 22.26087 655.582609 22.26087 384s218.156522-489.73913 489.73913-489.73913 489.73913 218.156522 489.73913 489.73913S783.582609 873.73913 512 873.73913zM512-128c-138.017391 0-264.904348 53.426087-362.852174 149.147826S0 248.208696 0 384c0 135.791304 53.426087 264.904348 149.147826 362.852174C247.095652 842.573913 373.982609 896 512 896c282.713043 0 512-229.286957 512-512S794.713043-128 512-128z m0 979.478261C387.33913 851.478261 269.356522 802.504348 180.313043 715.686957 93.495652 626.643478 44.521739 508.66087 44.521739 384s48.973913-242.643478 135.791304-331.686957c89.043478-89.043478 204.8-138.017391 331.686957-138.017391 258.226087 0 467.478261 209.252174 467.478261 467.478261C979.478261 642.226087 770.226087 851.478261 512 851.478261zM792.486957 510.886957L476.382609 194.782609c-13.356522-13.356522-35.617391-17.808696-53.426087-6.678261-2.226087 2.226087-6.678261 4.452174-8.904348 6.678261l-182.539131 182.53913c-17.808696 17.808696-17.808696 44.521739 0 62.330435s44.521739 17.808696 62.330435 0l151.373913-151.373913 284.939131 284.93913c17.808696 17.808696 44.521739 17.808696 62.330435 0 17.808696-17.808696 17.808696-44.521739 0-62.330434z"  horiz-adv-x="1024" />

    
    <glyph glyph-name="xialakuangjiantou" unicode="&#59012;" d="M878.80597-128c-30.567164 0-68.776119 15.283582-91.701492 38.208955L22.925373 659.104478c-30.567164 30.567164-30.567164 76.41791 0 106.985074 30.567164 30.567164 76.41791 30.567164 106.985075 0l748.895522-733.61194 748.895523 733.61194c30.567164 30.567164 76.41791 30.567164 106.985074 0 30.567164-30.567164 30.567164-76.41791 0-106.985074l-764.179104-748.895523c-22.925373-30.567164-61.134328-38.208955-91.701493-38.208955z"  horiz-adv-x="1757" />

    
    <glyph glyph-name="zhexiantu" unicode="&#59013;" d="M128-76.8c-43.52 0-76.8 33.28-76.8 76.8V768c0 43.52 33.28 76.8 76.8 76.8h819.2c43.52 0 76.8-33.28 76.8-76.8v-768c0-43.52-33.28-76.8-76.8-76.8H128zM947.2 819.2c28.16 0 51.2-23.04 51.2-51.2v-768c0-28.16-23.04-51.2-51.2-51.2H128c-28.16 0-51.2 23.04-51.2 51.2V768c0 28.16 23.04 51.2 51.2 51.2h819.2m0 51.2H128C71.68 870.4 25.6 824.32 25.6 768v-768c0-56.32 46.08-102.4 102.4-102.4h819.2c56.32 0 102.4 46.08 102.4 102.4V768c0 56.32-46.08 102.4-102.4 102.4zM194.56 135.68c17.92-12.8 43.52-10.24 58.88 7.68l176.64 204.8 130.56-104.96c7.68-7.68 20.48-10.24 30.72-10.24 10.24 2.56 20.48 7.68 28.16 15.36l266.24 325.12c12.8 15.36 10.24 38.4-5.12 51.2-2.56 0-2.56 2.56-5.12 2.56-17.92 12.8-43.52 10.24-58.88-7.68L578.56 332.8l-128 104.96c-7.68 7.68-20.48 10.24-30.72 10.24-10.24-2.56-20.48-5.12-28.16-12.8l-202.24-238.08c-15.36-23.04-12.8-48.64 5.12-61.44z"  horiz-adv-x="1075" />

    
    <glyph glyph-name="riqixuanze" unicode="&#59014;" d="M54.468085 558.297872v-501.106383c0-71.897872 58.825532-130.723404 130.723404-130.723404h653.617022c71.897872 0 130.723404 58.825532 130.723404 130.723404v501.106383h-915.06383zM838.808511 710.808511c37.038298 0 65.361702-28.323404 65.361702-65.361702v-610.042554c0-37.038298-28.323404-65.361702-65.361702-65.361702h-653.617022c-37.038298 0-65.361702 28.323404-65.361702 65.361702v610.042554c0 37.038298 28.323404 65.361702 65.361702 65.361702h653.617022m0 65.361702h-653.617022c-71.897872 0-130.723404-58.825532-130.723404-130.723404v-610.042554c0-71.897872 58.825532-130.723404 130.723404-130.723404h653.617022c71.897872 0 130.723404 58.825532 130.723404 130.723404v610.042554c0 71.897872-58.825532 130.723404-130.723404 130.723404zM947.744681 601.87234h-871.489362v-65.361702h871.489362zM228.765957 318.638298c-13.07234 0-21.787234 8.714894-21.787234 21.787234v87.148936c0 13.07234 8.714894 21.787234 21.787234 21.787234h87.148937c13.07234 0 21.787234-8.714894 21.787234-21.787234v-87.148936c0-13.07234-8.714894-21.787234-21.787234-21.787234h-87.148937zM315.914894 427.574468v-87.148936h-87.148937v87.148936h87.148937m0 43.574468h-87.148937c-23.965957 0-43.574468-19.608511-43.574468-43.574468v-87.148936c0-23.965957 19.608511-43.574468 43.574468-43.574468h87.148937c23.965957 0 43.574468 19.608511 43.574468 43.574468v87.148936c0 23.965957-19.608511 43.574468-43.574468 43.574468zM468.425532 318.638298c-13.07234 0-21.787234 8.714894-21.787234 21.787234v87.148936c0 13.07234 8.714894 21.787234 21.787234 21.787234h87.148936c13.07234 0 21.787234-8.714894 21.787234-21.787234v-87.148936c0-13.07234-8.714894-21.787234-21.787234-21.787234h-87.148936zM555.574468 427.574468v-87.148936h-87.148936v87.148936h87.148936m0 43.574468h-87.148936c-23.965957 0-43.574468-19.608511-43.574468-43.574468v-87.148936c0-23.965957 19.608511-43.574468 43.574468-43.574468h87.148936c23.965957 0 43.574468 19.608511 43.574468 43.574468v87.148936c0 23.965957-19.608511 43.574468-43.574468 43.574468zM708.085106 318.638298c-13.07234 0-21.787234 8.714894-21.787234 21.787234v87.148936c0 13.07234 8.714894 21.787234 21.787234 21.787234h87.148937c13.07234 0 21.787234-8.714894 21.787234-21.787234v-87.148936c0-13.07234-8.714894-21.787234-21.787234-21.787234h-87.148937zM795.234043 427.574468v-87.148936h-87.148937v87.148936h87.148937m0 43.574468h-87.148937c-23.965957 0-43.574468-19.608511-43.574468-43.574468v-87.148936c0-23.965957 19.608511-43.574468 43.574468-43.574468h87.148937c23.965957 0 43.574468 19.608511 43.574468 43.574468v87.148936c0 23.965957-19.608511 43.574468-43.574468 43.574468zM228.765957 57.191489c-13.07234 0-21.787234 8.714894-21.787234 21.787234v87.148937c0 13.07234 8.714894 21.787234 21.787234 21.787234h87.148937c13.07234 0 21.787234-8.714894 21.787234-21.787234v-87.148937c0-13.07234-8.714894-21.787234-21.787234-21.787234h-87.148937zM315.914894 166.12766v-87.148937h-87.148937v87.148937h87.148937m0 43.574468h-87.148937c-23.965957 0-43.574468-19.608511-43.574468-43.574468v-87.148937c0-23.965957 19.608511-43.574468 43.574468-43.574468h87.148937c23.965957 0 43.574468 19.608511 43.574468 43.574468v87.148937c0 23.965957-19.608511 43.574468-43.574468 43.574468zM468.425532 57.191489c-13.07234 0-21.787234 8.714894-21.787234 21.787234v87.148937c0 13.07234 8.714894 21.787234 21.787234 21.787234h87.148936c13.07234 0 21.787234-8.714894 21.787234-21.787234v-87.148937c0-13.07234-8.714894-21.787234-21.787234-21.787234h-87.148936zM555.574468 166.12766v-87.148937h-87.148936v87.148937h87.148936m0 43.574468h-87.148936c-23.965957 0-43.574468-19.608511-43.574468-43.574468v-87.148937c0-23.965957 19.608511-43.574468 43.574468-43.574468h87.148936c23.965957 0 43.574468 19.608511 43.574468 43.574468v87.148937c0 23.965957-19.608511 43.574468-43.574468 43.574468zM708.085106 57.191489c-13.07234 0-21.787234 8.714894-21.787234 21.787234v87.148937c0 13.07234 8.714894 21.787234 21.787234 21.787234h87.148937c13.07234 0 21.787234-8.714894 21.787234-21.787234v-87.148937c0-13.07234-8.714894-21.787234-21.787234-21.787234h-87.148937zM795.234043 166.12766v-87.148937h-87.148937v87.148937h87.148937m0 43.574468h-87.148937c-23.965957 0-43.574468-19.608511-43.574468-43.574468v-87.148937c0-23.965957 19.608511-43.574468 43.574468-43.574468h87.148937c23.965957 0 43.574468 19.608511 43.574468 43.574468v87.148937c0 23.965957-19.608511 43.574468-43.574468 43.574468zM392.170213 863.319149c-17.429787 0-32.680851-15.251064-32.680851-32.680851v-152.510638c0-17.429787 15.251064-32.680851 32.680851-32.680851s32.680851 15.251064 32.680851 32.680851V830.638298c0 17.429787-15.251064 32.680851-32.680851 32.680851zM631.829787 863.319149c-17.429787 0-32.680851-15.251064-32.680851-32.680851v-152.510638c0-17.429787 15.251064-32.680851 32.680851-32.680851s32.680851 15.251064 32.680851 32.680851V830.638298c0 17.429787-15.251064 32.680851-32.680851 32.680851z"  horiz-adv-x="1024" />

    
    <glyph glyph-name="sousuo" unicode="&#59022;" d="M426.666667 789.333333c177.777778 0 320-142.222222 320-320s-142.222222-320-320-320-320 142.222222-320 320 142.222222 320 320 320m0 71.111111C209.777778 860.444444 35.555556 686.222222 35.555556 469.333333s174.222222-391.111111 391.111111-391.111111 391.111111 174.222222 391.111111 391.111111S643.555556 860.444444 426.666667 860.444444zM732.444444 238.222222l273.777778-273.777778c21.333333-21.333333 21.333333-53.333333 0-74.666666-21.333333-21.333333-53.333333-21.333333-74.666666 0l-273.777778 273.777778c-21.333333 21.333333-21.333333 53.333333 0 74.666666 21.333333 17.777778 56.888889 17.777778 74.666666 0z"  horiz-adv-x="1024" />

    
    <glyph glyph-name="zhishiku-yixuezhishi" unicode="&#59023;" d="M790.4 352c-8-150.4-137.6-264-286.4-256-137.6 8-248 118.4-256 256h542.4zM182.4 720l-11.2-9.6 11.2 9.6m339.2-20.8v-48c70.4 0 139.2-28.8 188.8-78.4 104-105.6 104-276.8 0-380.8-51.2-49.6-118.4-78.4-188.8-78.4-72 0-140.8 28.8-190.4 80-104 105.6-104 276.8 1.6 380.8 51.2 49.6 118.4 78.4 188.8 78.4h1.6l-1.6 46.4M188.8 750.4c-6.4 0-12.8-3.2-17.6-8-9.6-11.2-9.6-27.2 0-36.8l56-60.8c4.8-4.8 11.2-8 17.6-8 6.4 0 12.8 3.2 17.6 8 9.6 11.2 9.6 27.2 0 36.8l-56 60.8-1.6 1.6c-4.8 4.8-9.6 6.4-16 6.4z m667.2-4.8c-6.4 0-12.8-3.2-17.6-8l-56-60.8c-4.8-4.8-8-11.2-8-19.2 0-6.4 3.2-14.4 6.4-19.2 4.8-4.8 11.2-8 17.6-8 6.4 0 12.8 3.2 17.6 8l56 60.8c9.6 11.2 9.6 27.2 0 36.8l-1.6 1.6c-3.2 6.4-9.6 8-14.4 8z m-334.4-46.4c-84.8 0-164.8-33.6-224-91.2-124.8-123.2-124.8-323.2-1.6-448 62.4-62.4 144-94.4 225.6-94.4 80 0 161.6 30.4 222.4 91.2 123.2 124.8 123.2 324.8 0 449.6-59.2 59.2-139.2 92.8-222.4 92.8zM120 400h-64c-12.8 0-32-4.8-32-19.2 0-14.4 11.2-25.6 24-27.2h80c14.4 0 25.6 12.8 25.6 27.2 0 14.4-19.2 19.2-33.6 19.2z m790.4 0c-6.4 0-12.8-3.2-17.6-8-4.8-4.8-8-11.2-8-19.2 0-14.4 4.8-20.8 17.6-20.8h80c3.2 0 6.4-1.6 9.6-1.6 4.8 0 9.6 1.6 14.4 3.2 9.6 11.2 9.6 27.2 0 38.4-3.2 4.8-8 8-14.4 8h-81.6zM528 896c12.8 0 24-11.2 24-24v-96c0-12.8-11.2-24-24-24s-24 11.2-24 24v96c0 12.8 11.2 24 24 24zM400 32h240c12.8 0 24-11.2 24-24S652.8-16 640-16H400c-12.8 0-24 11.2-24 24S387.2 32 400 32zM448-80h144c12.8 0 24-11.2 24-24S604.8-128 592-128h-144c-12.8 0-24 11.2-24 24S435.2-80 448-80z"  horiz-adv-x="1040" />

    
    <glyph glyph-name="zhishiku-yaopinqixie" unicode="&#59024;" d="M123.373494 238.595525l130.423408 65.211704 534.030981-15.862306 112.798623-49.349398-470.581756-146.285714L123.373494 238.595525zM123.373494 448.330465l96.936317 65.211704 551.655766-15.862307 130.423408-49.349397M137.473322 462.430293l-95.173838-47.58692c-14.099828-7.049914-21.149742-26.437177-14.099828-40.537005 3.524957-5.287435 7.049914-10.574871 12.337349-12.337349l452.956971-246.746988c8.812392-5.287435 19.387263-5.287435 28.199656 0l454.719449 244.984509c14.099828 8.812392 19.387263 26.437177 12.337349 40.537006-3.524957 5.287435-7.049914 10.574871-12.337349 12.337349l-89.886403 45.824441M132.185886 242.120482l-89.886402-40.537005c-10.574871-5.287435-15.862306-15.862306-15.862307-26.437178s5.287435-21.149742 15.862307-26.437177l451.194492-246.746988c8.812392-5.287435 19.387263-5.287435 28.199656 0l454.719449 244.98451c10.574871 5.287435 15.862306 15.862306 15.862306 26.437177s-7.049914 21.149742-15.862306 26.437177L890.051635 243.88296M512.881239 869.562823L59.924269 652.777969l-17.624785-33.487091 33.487091-51.111876 167.435456-100.461274L428.282272 367.256454l66.974182-33.487091H546.36833l151.57315 84.598967 167.435456 100.461274 118.086059 51.111876 17.624785 33.487091-51.111876 51.111877-320.771085 165.672977-116.32358 49.349398zM507.593804-128c-8.812392 0-19.387263 1.762478-26.437177 7.049914L29.962134 124.034423C10.574871 134.609294 0 153.996558 0 175.146299s12.337349 40.537005 31.724613 49.349398l102.223752 56.399312-103.986231 56.399311c-10.574871 5.287435-17.624785 14.099828-22.91222 24.674699-14.099828 28.199656-3.524957 61.686747 24.674699 75.786575l118.086058 59.924268L35.24957 561.129088c-10.574871 5.287435-17.624785 14.099828-22.912221 24.674699-14.099828 28.199656-3.524957 61.686747 24.674699 75.786574L491.731497 890.712565c15.862306 8.812392 35.24957 8.812392 51.111876 0l451.194493-229.122204c10.574871-5.287435 19.387263-14.099828 24.674699-22.91222 7.049914-14.099828 8.812392-28.199656 5.287435-44.061962-3.524957-14.099828-14.099828-26.437177-28.199656-33.487091l-119.848537-65.211704 114.561102-58.16179c10.574871-5.287435 19.387263-14.099828 24.674699-22.912221 7.049914-14.099828 8.812392-28.199656 5.287435-44.061962-3.524957-14.099828-14.099828-26.437177-28.199656-33.487091L881.239243 277.370052l107.511187-52.874355c19.387263-10.574871 31.724613-28.199656 31.724613-49.349398 0-21.149742-10.574871-40.537005-29.962134-51.111876L534.030981-120.950086c-8.812392-5.287435-17.624785-7.049914-26.437177-7.049914zM176.247849 256.22031c-1.762478-8.812392-5.287435-15.862306-14.099828-19.387264l-107.511188-58.16179c0-1.762478-1.762478-3.524957-1.762478-5.287435 0-1.762478 0-3.524957 1.762478-3.524957l451.194492-244.984509h3.524957l454.719449 244.984509c1.762478 0 1.762478 1.762478 1.762479 3.524957s-1.762478 3.524957-1.762479 3.524957l-119.848537 59.924268c-7.049914 3.524957-10.574871 8.812392-12.337349 14.099828l-296.096385-160.385542c-17.624785-8.812392-37.012048-8.812392-54.636833 0L176.247849 256.22031z m22.91222 215.022375c-1.762478-7.049914-7.049914-12.337349-12.33735-15.862306l-130.423407-65.211704c-3.524957 0-3.524957-3.524957-3.524957-5.287436l1.762478-1.762478 451.194492-246.746988h3.524957l454.719449 244.984509c1.762478 0 1.762478 1.762478 1.762479 1.762479v3.524957l-1.762479 1.762478-125.135972 63.449226c-7.049914 3.524957-10.574871 8.812392-12.337349 15.862306L539.318417 314.3821c-17.624785-8.812392-37.012048-8.812392-54.636834 0l-285.521514 156.860585z m-139.2358 135.710843l451.194492-246.746988h3.524957l454.719449 246.746988c1.762478 0 1.762478 1.762478 1.762478 1.762479v3.524957L969.363167 614.003442 518.168675 843.125645h-3.524957L59.924269 614.003442c-1.762478-1.762478-1.762478-3.524957 0-7.049914-1.762478 0 0 0 0 0z"  horiz-adv-x="1025" />

    
    <glyph glyph-name="zhishiku-shenghuochangshi" unicode="&#59025;" d="M72.566929 312.23937h619.237795c17.738583 0 32.251969-14.513386 32.251969-32.251968V89.700787c0-88.692913-72.566929-161.259843-161.259843-161.259842H201.574803c-88.692913 0-161.259843 72.566929-161.259842 161.259842V279.987402c0 17.738583 14.513386 32.251969 32.251968 32.251968zM675.67874 557.354331c6.450394 0 11.288189-6.450394 9.675591-11.288189V444.472441H815.974803c61.27874 0 91.91811-3.225197 116.107087-22.576378 29.026772-22.576378 46.765354-59.666142 45.152756-96.755906v-3.225196c0-43.540157-17.738583-87.080315-48.377953-117.719685l-1.612599-1.612599v-1.612598c-29.026772-30.63937-69.341732-49.990551-111.269291-49.990551L806.299213 154.204724h-120.944882l1.612598-49.990551c1.612598-40.314961-14.513386-82.24252-41.927559-111.269291-30.63937-30.63937-74.179528-48.377953-117.719685-48.377953H240.277165C148.359055-55.433071 72.566929 20.359055 72.566929 112.277165V538.00315c0 11.288189 17.738583 19.351181 32.251969 19.351181H675.67874c-1.612598 0 0 0 0 0m0 48.377952H104.818898c-40.314961 0-80.629921-25.801575-80.629922-67.729133v-425.725985C24.188976-7.055118 120.944882-103.811024 240.277165-103.811024h283.817323c56.440945 0 111.269291 22.576378 151.584252 62.891339 38.702362 38.702362 58.053543 91.91811 56.440945 146.746457h80.629921c56.440945 1.612598 108.044094 25.801575 146.746457 66.116535 40.314961 40.314961 62.891339 95.143307 62.891339 151.584252 1.612598 53.215748-22.576378 103.206299-62.891339 135.458268-38.702362 30.63937-85.467717 32.251969-146.746457 32.251968h-80.629921v48.377953c3.225197 32.251969-19.351181 61.27874-51.60315 64.503937-1.612598 1.612598-3.225197 1.612598-4.837795 1.612598zM532.15748 896c12.900787 0 24.188976-11.288189 24.188977-24.188976v-145.133859c0-12.900787-11.288189-24.188976-24.188977-24.188976s-24.188976 11.288189-24.188976 24.188976v145.133859c0 12.900787 11.288189 24.188976 24.188976 24.188976zM370.897638 896c12.900787 0 24.188976-11.288189 24.188976-24.188976v-145.133859c0-12.900787-11.288189-24.188976-24.188976-24.188976s-24.188976 11.288189-24.188977 24.188976v145.133859c0 12.900787 11.288189 24.188976 24.188977 24.188976zM209.637795 896c12.900787 0 24.188976-11.288189 24.188977-24.188976v-145.133859c0-12.900787-11.288189-24.188976-24.188977-24.188976s-24.188976 11.288189-24.188976 24.188976v145.133859c0 12.900787 11.288189 24.188976 24.188976 24.188976zM733.732283 492.850394h-48.377952v-354.771654h48.377952V492.850394z"  horiz-adv-x="1048" />

    
    <glyph glyph-name="label_zhishiku_xiangying" unicode="&#59026;" d="M811.565182 890.247511l278.436061 0 0-1012.494769-278.436061 0 0 1012.494769ZM887.50229 738.373296l126.561846 0 0-50.624739-126.561846 0 0 50.624739ZM887.50229 611.81145l126.561846 0 0-50.624739-126.561846 0 0 50.624739ZM887.50229 485.249603l126.561846 0 0-50.624738-126.561846 0 0 50.624738ZM507.816751 890.247511l278.436062 0 0-1012.494769-278.436062 0 0 1012.494769ZM583.753859 738.373296l126.561846 0 0-50.624739-126.561846 0 0 50.624739ZM583.753859 611.81145l126.561846 0 0-50.624739-126.561846 0 0 50.624739ZM583.753859 485.249603l126.561846 0 0-50.624738-126.561846 0 0 50.624738ZM325.896754 894.29749l171.16224-46.068512a50.371615 50.371615 0 0 0 35.79169-61.762181L270.791726-90.353673a50.7513 50.7513 0 0 0-61.989992-35.943564l-171.162241 46.068512a50.624738 50.624738 0 0 0-35.79169 62.015305L263.906761 858.353926A50.7513 50.7513 0 0 0 325.896754 894.29749zM335.490142 734.323317l73.40587-19.490525a25.413619 25.413619 0 0 0-13.111807-49.105996l-73.405871 19.743648a25.312369 25.312369 0 1 0 13.111808 48.852873zM302.786561 612.064573l73.40587-19.490524a25.464243 25.464243 0 0 0 17.895845-31.134214 25.135183 25.135183 0 0 0-31.007652-17.718659l-73.405871 19.490525a25.312369 25.312369 0 1 0 13.111808 48.852872zM269.880481 489.80583l73.40587-19.490524a25.464243 25.464243 0 0 0 17.895845-31.134215 25.135183 25.135183 0 0 0-31.007652-17.718658l-73.405871 19.490524a25.312369 25.312369 0 1 0 13.111808 48.852873z"  horiz-adv-x="1090" />

    
    <glyph glyph-name="shoucang-xuanzhongzhuangtai" unicode="&#59015;" d="M524.455154-127.711261a65.097537 65.097537 0 0 0-32.680014 8.872164C165.368742 71.466202 0 290.225424 0 531.348799 0 708.030863 103.552331 895.790008 295.458819 895.790008a339.688396 339.688396 0 0 0 169.752327-44.38707 116.624337 116.624337 0 0 1 116.440593 0.419984 333.362385 333.362385 0 0 0 167.993643 43.967086c187.942888 0 300.20989-184.478019 300.20989-362.84002 0-242.015842-165.709979-461.300044-492.562611-651.841583a65.386276 65.386276 0 0 0-32.75876-8.872164zM295.458819 835.889775"  horiz-adv-x="1049" />

    
    <glyph glyph-name="shoucang-weixuanzhongzhuangtai" unicode="&#59016;" d="M736.780488 821.073171c149.853659 0 237.268293-149.853659 237.268292-294.712195 0-212.292683-149.853659-404.604878-444.565853-576.936586 0-2.497561-2.497561-2.497561-4.995122-2.497561s-4.995122 0-4.995122 2.497561C224.780488 119.258537 74.926829 314.068293 74.926829 523.863415 74.926829 668.721951 154.84878 821.073171 307.2 821.073171h2.497561c47.453659 0 94.907317-12.487805 134.868293-34.965854 24.97561-14.985366 52.44878-19.980488 79.921951-19.980488s57.443902 7.492683 79.921951 22.478049c39.960976 19.980488 84.917073 32.468293 132.370732 32.468293m0 49.951219c-54.946341 0-109.892683-14.985366-157.346342-42.458536-17.482927-9.990244-37.463415-14.985366-54.946341-14.985366-19.980488 0-37.463415 4.995122-54.946342 14.985366-49.95122 27.473171-104.897561 42.458537-162.341463 42.458536h-2.497561C122.380488 871.02439 24.97561 691.2 24.97561 523.863415c0-229.77561 157.346341-437.073171 467.043902-619.395122 9.990244-4.995122 19.980488-7.492683 29.970732-7.492683 9.990244 0 22.478049 2.497561 29.970732 7.492683C866.653659 86.790244 1024 294.087805 1024 526.360976 1024 696.195122 916.604878 871.02439 736.780488 871.02439z"  horiz-adv-x="1048" />

    
    <glyph glyph-name="jiantou-you" unicode="&#59017;" d="M806.676259 450.302158L375.71223 866.532374C353.611511 884.94964 320.460432 884.94964 298.359712 862.848921c-22.100719-22.100719-22.100719-55.251799 0-77.352518l416.230216-401.496403L298.359712-17.496403c-22.100719-22.100719-22.100719-55.251799 0-77.352518 11.05036-11.05036 25.784173-18.417266 40.517986-18.417266 14.733813 0 25.784173 3.683453 36.834532 14.733813l430.964029 416.230216 3.683453 3.683453c18.417266 18.417266 25.784173 40.517986 25.784173 66.302158-3.683453 22.100719-11.05036 47.884892-29.467626 62.618705z"  horiz-adv-x="1024" />

    
    <glyph glyph-name="tianjiabingzhong" unicode="&#59018;" d="M512 384m-512 0a512 512 0 1 1 1024 0 512 512 0 1 1-1024 0ZM744.727273 337.454545h-186.181818v-186.181818a46.545455 46.545455 0 0 0-93.09091 0v186.181818h-186.181818a46.545455 46.545455 0 0 0 0 93.09091h186.181818v186.181818a46.545455 46.545455 0 0 0 93.09091 0v-186.181818h186.181818a46.545455 46.545455 0 0 0 0-93.09091z"  horiz-adv-x="1024" />

    
    <glyph glyph-name="bianji" unicode="&#59019;" d="M971.654952 362.734824c-26.172524 0-49.073482-22.900958-49.073482-49.073482v-278.083067c0-16.357827-6.543131-32.715655-19.629393-42.530352-13.086262-13.086262-26.172524-16.357827-42.530352-16.357827H160.306709c-32.715655 0-62.159744 26.172524-62.159744 62.159744V735.693291C98.146965 768.408946 127.591054 797.853035 160.306709 797.853035h467.833866c26.172524 0 49.073482 22.900958 49.073483 49.073483S657.584665 896 628.140575 896H160.306709C71.974441 896 0 824.025559 0 735.693291v-703.386582c0-88.332268 71.974441-160.306709 160.306709-160.306709h703.386582c42.530351 0 81.789137 16.357827 111.233227 45.801917 29.444089 29.444089 45.801917 68.702875 45.801917 114.504792v278.083067c0 29.444089-19.629393 52.345048-49.073483 52.345048zM399.13099 267.859425c9.814696-9.814696 22.900958-13.086262 35.987221-13.086262 13.086262 0 26.172524 3.271565 35.98722 13.086262L952.025559 755.322684c19.629393 19.629393 19.629393 49.073482 0 68.702875-19.629393 19.629393-49.073482 19.629393-68.702875 0L399.13099 339.833866c-19.629393-19.629393-19.629393-52.345048 0-71.974441z"  horiz-adv-x="1053" />

    
    <glyph glyph-name="nav_xinzeng" unicode="&#59020;" d="M912.695652 829.217391c24.486957 0 44.521739-20.034783 44.521739-44.521739v-801.391304c0-24.486957-20.034783-44.521739-44.521739-44.521739H111.304348c-24.486957 0-44.521739 20.034783-44.521739 44.521739V784.695652c0 24.486957 20.034783 44.521739 44.521739 44.521739h801.391304m0 44.521739H111.304348C62.330435 873.73913 22.26087 833.669565 22.26087 784.695652v-801.391304c0-48.973913 40.069565-89.043478 89.043478-89.043478h801.391304c48.973913 0 89.043478 40.069565 89.043478 89.043478V784.695652c0 48.973913-40.069565 89.043478-89.043478 89.043478zM768 406.26087H556.521739v211.47826c0 17.808696-15.582609 33.391304-33.391304 33.391305s-33.391304-15.582609-33.391305-33.391305V406.26087h-211.47826c-17.808696 0-33.391304-15.582609-33.391305-33.391305s15.582609-33.391304 33.391305-33.391304H489.73913v-211.478261c0-17.808696 15.582609-33.391304 33.391305-33.391304s33.391304 15.582609 33.391304 33.391304V339.478261h211.478261c17.808696 0 33.391304 15.582609 33.391304 33.391304s-15.582609 33.391304-33.391304 33.391305z"  horiz-adv-x="1024" />

    
    <glyph glyph-name="shanchu" unicode="&#59021;" d="M598.884848 89.212121h12.412122c21.721212 0 40.339394 18.618182 40.339394 40.339394V452.266667c0 21.721212-18.618182 40.339394-40.339394 40.339394h-12.412122c-21.721212 0-40.339394-18.618182-40.339393-40.339394v-322.715152c0-21.721212 18.618182-40.339394 40.339393-40.339394zM983.660606 709.818182H713.69697V771.878788c0 68.266667-55.854545 124.121212-124.121212 124.121212h-155.151516c-68.266667 0-124.121212-55.854545-124.121212-124.121212v-62.060606H40.339394C18.618182 709.818182 0 691.2 0 669.478788v-12.412121C0 635.345455 18.618182 616.727273 40.339394 616.727273H124.121212v-620.606061c0-68.266667 55.854545-124.121212 124.121212-124.121212h527.515152c68.266667 0 124.121212 55.854545 124.121212 124.121212V616.727273h83.781818c21.721212 0 40.339394 18.618182 40.339394 40.339394v12.412121c0 21.721212-18.618182 40.339394-40.339394 40.339394zM403.393939 802.909091h217.212122v-93.090909h-217.212122V802.909091z m403.39394-837.818182H217.212121V616.727273h589.575758v-651.636364zM412.70303 89.212121h12.412122c21.721212 0 40.339394 18.618182 40.339393 40.339394V452.266667c0 21.721212-18.618182 40.339394-40.339393 40.339394h-12.412122c-21.721212 0-40.339394-18.618182-40.339394-40.339394v-322.715152c0-21.721212 18.618182-40.339394 40.339394-40.339394z"  horiz-adv-x="1024" />

    


  </font>
</defs>
</svg>
